<svg width="44" height="45" viewBox="0 0 44 45" fill="none" xmlns="http://www.w3.org/2000/svg">
<g clip-path="url(#clip0_32_742)">
<path d="M35.5875 2.16052H5.85723C2.89474 2.16052 0.493164 4.5621 0.493164 7.52459V39.1457C0.493164 42.1082 2.89474 44.5098 5.85723 44.5098H35.5875C38.55 44.5098 40.9516 42.1082 40.9516 39.1457V7.52459C40.9516 4.5621 38.55 2.16052 35.5875 2.16052Z" fill="#1E2020"/>
<mask id="mask0_32_742" style="mask-type:luminance" maskUnits="userSpaceOnUse" x="0" y="2" width="41" height="43">
<path d="M35.5875 2.16052H5.85723C2.89474 2.16052 0.493164 4.5621 0.493164 7.52459V39.1457C0.493164 42.1082 2.89474 44.5098 5.85723 44.5098H35.5875C38.55 44.5098 40.9516 42.1082 40.9516 39.1457V7.52459C40.9516 4.5621 38.55 2.16052 35.5875 2.16052Z" fill="white"/>
</mask>
<g mask="url(#mask0_32_742)">
<g style="mix-blend-mode:multiply">
<path d="M20.9121 -0.59308L26.37 6.21034H34.8453L36.8076 9.38408L43.0076 9.2321V-3.16336H26.37L20.9121 -0.59308Z" fill="#CE422B"/>
</g>
</g>
<path d="M33.5221 3.83682H7.92656C4.96407 3.83682 2.5625 6.2384 2.5625 9.20089V37.2549C2.5625 40.2174 4.96407 42.619 7.92656 42.619H33.5221C36.4846 42.619 38.8862 40.2174 38.8862 37.2549V9.20089C38.8862 6.2384 36.4846 3.83682 33.5221 3.83682Z" fill="#CE422B"/>
<mask id="mask1_32_742" style="mask-type:luminance" maskUnits="userSpaceOnUse" x="2" y="3" width="37" height="40">
<path d="M33.5221 3.83679H7.92656C4.96407 3.83679 2.5625 6.23836 2.5625 9.20086V37.2549C2.5625 40.2174 4.96407 42.619 7.92656 42.619H33.5221C36.4846 42.619 38.8862 40.2174 38.8862 37.2549V9.20086C38.8862 6.23836 36.4846 3.83679 33.5221 3.83679Z" fill="white"/>
</mask>
<g mask="url(#mask1_32_742)">
<g style="mix-blend-mode:multiply">
<path d="M12.6874 5.03481C12.6874 5.03481 6.72439 3.33619 5.20904 6.20596L3.20646 18.6014L7.32338 54.7329L-6.57849 38.1087L-6.73047 10.7431L-1.13843 -2.55981H5.96895L12.6874 5.03481Z" fill="#CE422B"/>
</g>
</g>
<path d="M30.1208 23.2324C30.1208 25.5702 29.267 27.7069 27.8545 29.3474C27.3538 29.933 26.7861 30.4515 26.1603 30.8896C24.6271 31.9892 22.7497 32.6284 20.7203 32.6284C18.6909 32.6284 16.8134 31.9847 15.2802 30.8896C14.6544 30.447 14.0867 29.9285 13.5905 29.3474C12.178 27.7069 11.3242 25.5702 11.3242 23.2324C11.3242 21.0644 12.0573 19.0663 13.291 17.4794C13.7604 16.8759 14.2968 16.3306 14.8958 15.8612C16.4961 14.5917 18.5165 13.8363 20.7203 13.8363C22.924 13.8363 24.797 14.5381 26.3704 15.7227C26.9783 16.1831 27.5326 16.715 28.0154 17.3051C29.3296 18.9188 30.1208 20.9839 30.1208 23.2324Z" stroke="#1E2020" stroke-width="1.34102" stroke-miterlimit="10"/>
<path d="M14.896 15.8612C14.297 16.3306 13.7606 16.8759 13.2912 17.4794L9.92529 14.6319L11.3959 12.8976L14.896 15.8612Z" stroke="#1E2020" stroke-width="1.34102" stroke-miterlimit="10"/>
<path d="M31.1759 14.6319L28.0156 17.305C27.5328 16.715 26.9785 16.183 26.3706 15.7226L29.7097 12.8976L31.1759 14.6319Z" stroke="#1E2020" stroke-width="1.34102" stroke-miterlimit="10"/>
<path d="M31.3454 32.3021L29.8792 34.0364L26.1602 30.8895C26.786 30.4515 27.3537 29.9329 27.8543 29.3474L31.3454 32.3021Z" stroke="#1E2020" stroke-width="1.34102" stroke-miterlimit="10"/>
<path d="M15.28 30.8895L11.5654 34.0364L10.0947 32.3021L13.5903 29.3474C14.0865 29.9285 14.6542 30.447 15.28 30.8895Z" stroke="#1E2020" stroke-width="1.34102" stroke-miterlimit="10"/>
<path d="M27.4787 7.6319H14.3502C12.7365 7.6319 11.2524 8.50356 10.4612 9.91162L3.77849 21.8511C3.02305 23.2011 3.02305 24.8505 3.77849 26.205L10.4612 38.1445C11.248 39.5526 12.7365 40.4242 14.3502 40.4242H27.4787C29.0924 40.4242 30.5765 39.5526 31.3677 38.1445L38.0504 26.205C38.8058 24.855 38.8058 23.2056 38.0504 21.8511L31.3677 9.91162C30.5809 8.50356 29.0924 7.6319 27.4787 7.6319Z" stroke="#1E2020" stroke-width="1.34102" stroke-miterlimit="10"/>
<path d="M20.7246 29.6782C24.2846 29.6782 27.1704 26.7923 27.1704 23.2324C27.1704 19.6724 24.2846 16.7866 20.7246 16.7866C17.1647 16.7866 14.2788 19.6724 14.2788 23.2324C14.2788 26.7923 17.1647 29.6782 20.7246 29.6782Z" fill="#1E2020"/>
</g>
<defs>
<clipPath id="clip0_32_742">
<rect width="42.3008" height="44.1602" fill="white" transform="translate(0.707031 0.55542)"/>
</clipPath>
</defs>
</svg>
