<svg width="74" height="32" viewBox="0 0 74 32" fill="none" xmlns="http://www.w3.org/2000/svg">
<path d="M33.9605 6.86394V3.62533H30.7219V6.86394H33.9605ZM28.293 12.5315V1.19638H36.3895V9.29289H33.9605V10.1025H36.3895V12.5315H31.5316V9.29289H30.7219V12.5315H28.293ZM37.1738 12.5315V1.19638H39.6028V10.1025H42.8414V1.19638H45.2703V12.5315H37.1738ZM46.0547 12.5315V10.1025H51.7222V7.67359H46.0547V1.19638H54.1512V3.62533H48.4836V5.24464H54.1512V12.5315H46.0547ZM57.3645 12.5315V3.62533H54.9355V1.19638H62.2224V3.62533H59.7935V12.5315H57.3645Z" fill="#1E2020"/>
<path d="M28.293 31.886V29.457H33.9605V27.0281H28.293V20.5509H36.3895V22.9798H30.7219V24.5991H36.3895V31.886H28.293ZM39.6028 31.886V22.9798H37.1738V20.5509H44.4607V22.9798H42.0317V31.886H39.6028ZM50.9126 26.2184V22.9798H47.674V26.2184H50.9126ZM45.245 31.886V20.5509H53.3415V31.886H50.9126V28.6474H47.674V31.886H45.245ZM54.1259 31.886V29.457H59.7935V27.0281H54.1259V20.5509H62.2224V22.9798H56.5548V24.5991H62.2224V31.886H54.1259ZM63.0068 31.886V20.5509H65.4357V26.2184H68.6743V20.5509H71.1033V31.886H68.6743V28.6474H65.4357V31.886H63.0068Z" fill="#1E2020"/>
<path d="M20.1256 6.71997H4.24842C2.66633 6.71997 1.38379 8.00251 1.38379 9.5846V26.4716C1.38379 28.0537 2.66633 29.3362 4.24842 29.3362H20.1256C21.7077 29.3362 22.9903 28.0537 22.9903 26.4716V9.5846C22.9903 8.00251 21.7077 6.71997 20.1256 6.71997Z" fill="#1E2020"/>
<mask id="mask0_84_2" style="mask-type:luminance" maskUnits="userSpaceOnUse" x="1" y="6" width="22" height="24">
<path d="M20.1256 6.71997H4.24842C2.66633 6.71997 1.38379 8.00251 1.38379 9.5846V26.4716C1.38379 28.0537 2.66633 29.3362 4.24842 29.3362H20.1256C21.7077 29.3362 22.9903 28.0537 22.9903 26.4716V9.5846C22.9903 8.00251 21.7077 6.71997 20.1256 6.71997Z" fill="white"/>
</mask>
<g mask="url(#mask0_84_2)">
<g style="mix-blend-mode:multiply">
<path d="M12.2886 5.24922L15.2033 8.88253H19.7295L20.7774 10.5774L24.0885 10.4963V3.87659H15.2033L12.2886 5.24922Z" fill="#CE422B"/>
</g>
</g>
<path d="M19.0225 7.61499H5.3534C3.77131 7.61499 2.48877 8.89753 2.48877 10.4796V25.4616C2.48877 27.0437 3.77131 28.3263 5.3534 28.3263H19.0225C20.6045 28.3263 21.8871 27.0437 21.8871 25.4616V10.4796C21.8871 8.89753 20.6045 7.61499 19.0225 7.61499Z" fill="#CE422B"/>
<mask id="mask1_84_2" style="mask-type:luminance" maskUnits="userSpaceOnUse" x="2" y="7" width="20" height="22">
<path d="M19.0225 7.61499H5.3534C3.77131 7.61499 2.48877 8.89753 2.48877 10.4796V25.4616C2.48877 27.0437 3.77131 28.3263 5.3534 28.3263H19.0225C20.6045 28.3263 21.8871 27.0437 21.8871 25.4616V10.4796C21.8871 8.89753 20.6045 7.61499 19.0225 7.61499Z" fill="white"/>
</mask>
<g mask="url(#mask1_84_2)">
<g style="mix-blend-mode:multiply">
<path d="M7.89535 8.25481C7.89535 8.25481 4.71084 7.34768 3.90158 8.88026L2.83212 15.4999L5.03072 34.7956L-2.39344 25.9176L-2.47461 11.3033L0.511767 4.19897H4.3074L7.89535 8.25481Z" fill="#CE422B"/>
</g>
</g>
<path d="M17.2061 17.9731C17.2061 19.2216 16.7502 20.3627 15.9958 21.2388C15.7284 21.5515 15.4253 21.8284 15.0911 22.0623C14.2723 22.6496 13.2696 22.991 12.1858 22.991C11.1021 22.991 10.0994 22.6472 9.28063 22.0623C8.94643 21.826 8.64325 21.5491 8.37827 21.2388C7.62392 20.3627 7.16797 19.2216 7.16797 17.9731C7.16797 16.8153 7.55947 15.7482 8.21833 14.9008C8.46899 14.5785 8.75545 14.2873 9.07534 14.0366C9.92995 13.3586 11.009 12.9552 12.1858 12.9552C13.3627 12.9552 14.363 13.33 15.2033 13.9626C15.5279 14.2085 15.8239 14.4926 16.0817 14.8077C16.7836 15.6694 17.2061 16.7723 17.2061 17.9731Z" stroke="#1E2020" stroke-width="0.575212" stroke-miterlimit="10"/>
<path d="M9.07497 14.0366C8.75508 14.2872 8.46862 14.5785 8.21797 14.9007L6.42041 13.3801L7.2058 12.4539L9.07497 14.0366Z" stroke="#1E2020" stroke-width="0.575212" stroke-miterlimit="10"/>
<path d="M17.7689 13.3801L16.0811 14.8076C15.8233 14.4925 15.5273 14.2084 15.2026 13.9626L16.9859 12.4539L17.7689 13.3801Z" stroke="#1E2020" stroke-width="0.575212" stroke-miterlimit="10"/>
<path d="M17.86 22.8167L17.077 23.7429L15.0908 22.0623C15.425 21.8284 15.7282 21.5515 15.9956 21.2388L17.86 22.8167Z" stroke="#1E2020" stroke-width="0.575212" stroke-miterlimit="10"/>
<path d="M9.28037 22.0623L7.29662 23.7429L6.51123 22.8167L8.37801 21.2388C8.64299 21.5491 8.94617 21.826 9.28037 22.0623Z" stroke="#1E2020" stroke-width="0.575212" stroke-miterlimit="10"/>
<path d="M15.7949 9.64172H8.78374C7.92196 9.64172 7.12941 10.1072 6.70688 10.8592L3.13803 17.2354C2.73459 17.9563 2.73459 18.8372 3.13803 19.5605L6.70688 25.9367C7.12702 26.6887 7.92196 27.1542 8.78374 27.1542H15.7949C16.6567 27.1542 17.4492 26.6887 17.8718 25.9367L21.4406 19.5605C21.8441 18.8396 21.8441 17.9587 21.4406 17.2354L17.8718 10.8592C17.4516 10.1072 16.6567 9.64172 15.7949 9.64172Z" stroke="#1E2020" stroke-width="0.575212" stroke-miterlimit="10"/>
<path d="M12.1879 21.4154C14.0891 21.4154 15.6303 19.8742 15.6303 17.9731C15.6303 16.0719 14.0891 14.5308 12.1879 14.5308C10.2868 14.5308 8.74561 16.0719 8.74561 17.9731C8.74561 19.8742 10.2868 21.4154 12.1879 21.4154Z" fill="#1E2020"/>
</svg>
