<svg width="121" height="32" viewBox="0 0 121 32" fill="none" xmlns="http://www.w3.org/2000/svg">
<g clip-path="url(#clip0_145_31)">
<path d="M19.4564 5.31667H5.67704C4.30399 5.31667 3.19092 6.42974 3.19092 7.80279V22.4585C3.19092 23.8315 4.30399 24.9446 5.67704 24.9446H19.4564C20.8294 24.9446 21.9425 23.8315 21.9425 22.4585V7.80279C21.9425 6.42974 20.8294 5.31667 19.4564 5.31667Z" fill="#1E2020"/>
<mask id="mask0_145_31" style="mask-type:luminance" maskUnits="userSpaceOnUse" x="3" y="5" width="19" height="20">
<path d="M19.4564 5.31667H5.67704C4.30399 5.31667 3.19092 6.42974 3.19092 7.80279V22.4585C3.19092 23.8315 4.30399 24.9446 5.67704 24.9446H19.4564C20.8294 24.9446 21.9425 23.8315 21.9425 22.4585V7.80279C21.9425 6.42974 20.8294 5.31667 19.4564 5.31667Z" fill="white"/>
</mask>
<g mask="url(#mask0_145_31)">
<g style="mix-blend-mode:multiply">
<path d="M12.6543 4.04043L15.1839 7.19366H19.112L20.0215 8.66462L22.895 8.59418V2.84917H15.1839L12.6543 4.04043Z" fill="#CE422B"/>
</g>
</g>
<path d="M18.499 6.09354H6.63602C5.26298 6.09354 4.1499 7.20662 4.1499 8.57966V21.5821C4.1499 22.9551 5.26298 24.0682 6.63602 24.0682H18.499C19.872 24.0682 20.9851 22.9551 20.9851 21.5821V8.57966C20.9851 7.20662 19.872 6.09354 18.499 6.09354Z" fill="#CE422B"/>
<mask id="mask1_145_31" style="mask-type:luminance" maskUnits="userSpaceOnUse" x="4" y="6" width="17" height="19">
<path d="M18.499 6.09354H6.63602C5.26298 6.09354 4.1499 7.20662 4.1499 8.57966V21.5821C4.1499 22.9551 5.26298 24.0682 6.63602 24.0682H18.499C19.872 24.0682 20.9851 22.9551 20.9851 21.5821V8.57966C20.9851 7.20662 19.872 6.09354 18.499 6.09354Z" fill="white"/>
</mask>
<g mask="url(#mask1_145_31)">
<g style="mix-blend-mode:multiply">
<path d="M8.84253 6.64878C8.84253 6.64878 6.07879 5.86151 5.37646 7.19158L4.44831 12.9366L6.35641 29.6827L-0.0867865 21.9778L-0.157227 9.29442L2.43455 3.12885H5.72866L8.84253 6.64878Z" fill="#CE422B"/>
</g>
</g>
<path d="M16.9222 15.083C16.9222 16.1665 16.5265 17.1568 15.8718 17.9171C15.6398 18.1885 15.3767 18.4289 15.0866 18.6319C14.376 19.1415 13.5059 19.4378 12.5653 19.4378C11.6247 19.4378 10.7546 19.1395 10.044 18.6319C9.75392 18.4268 9.4908 18.1865 9.26084 17.9171C8.60616 17.1568 8.21045 16.1665 8.21045 15.083C8.21045 14.0781 8.55022 13.1521 9.12203 12.4166C9.33956 12.1369 9.58817 11.8841 9.86579 11.6666C10.6075 11.0782 11.5439 10.7281 12.5653 10.7281C13.5867 10.7281 14.4548 11.0534 15.184 11.6024C15.4658 11.8158 15.7227 12.0623 15.9464 12.3358C16.5555 13.0837 16.9222 14.0409 16.9222 15.083Z" stroke="#1E2020" stroke-width="0.62153" stroke-miterlimit="10"/>
<path d="M9.86582 11.6666C9.5882 11.8842 9.33959 12.1369 9.12205 12.4166L7.56201 11.0969L8.24362 10.293L9.86582 11.6666Z" stroke="#1E2020" stroke-width="0.62153" stroke-miterlimit="10"/>
<path d="M17.4112 11.0969L15.9465 12.3358C15.7227 12.0623 15.4658 11.8158 15.1841 11.6024L16.7317 10.293L17.4112 11.0969Z" stroke="#1E2020" stroke-width="0.62153" stroke-miterlimit="10"/>
<path d="M17.4902 19.2865L16.8106 20.0904L15.0869 18.6319C15.377 18.4288 15.6401 18.1885 15.8721 17.9171L17.4902 19.2865Z" stroke="#1E2020" stroke-width="0.62153" stroke-miterlimit="10"/>
<path d="M10.0439 18.6319L8.32224 20.0904L7.64062 19.2865L9.26075 17.9171C9.49071 18.1864 9.75383 18.4268 10.0439 18.6319Z" stroke="#1E2020" stroke-width="0.62153" stroke-miterlimit="10"/>
<path d="M15.6978 7.85247H9.61301C8.8651 7.85247 8.17727 8.25647 7.81057 8.90907L4.71328 14.4428C4.36315 15.0684 4.36315 15.8329 4.71328 16.4607L7.81057 21.9944C8.1752 22.647 8.8651 23.051 9.61301 23.051H15.6978C16.4457 23.051 17.1335 22.647 17.5002 21.9944L20.5975 16.4607C20.9476 15.835 20.9476 15.0705 20.5975 14.4428L17.5002 8.90907C17.1356 8.25647 16.4457 7.85247 15.6978 7.85247Z" stroke="#1E2020" stroke-width="0.62153" stroke-miterlimit="10"/>
<path d="M12.5676 18.0705C14.2175 18.0705 15.5551 16.7329 15.5551 15.083C15.5551 13.433 14.2175 12.0955 12.5676 12.0955C10.9176 12.0955 9.58008 13.433 9.58008 15.083C9.58008 16.7329 10.9176 18.0705 12.5676 18.0705Z" fill="#1E2020"/>
</g>
<path d="M33.1239 14.8761V11.3767H29.6245V14.8761H33.1239ZM27 21V8.75213H35.7485V17.5006H33.1239V18.3755H35.7485V21H30.4994V17.5006H29.6245V21H27ZM36.596 21V8.75213H39.2205V18.3755H42.7199V8.75213H45.3445V21H36.596ZM46.192 21V18.3755H52.3159V15.7509H46.192V8.75213H54.9404V11.3767H48.8165V13.1264H54.9404V21H46.192ZM58.4125 21V11.3767H55.788V8.75213H63.6616V11.3767H61.037V21H58.4125ZM68.8833 21V18.3755H75.0073V15.7509H68.8833V8.75213H77.6318V11.3767H71.5079V13.1264H77.6318V21H68.8833ZM81.1039 21V11.3767H78.4793V8.75213H86.3529V11.3767H83.7284V21H81.1039ZM93.3244 14.8761V11.3767H89.825V14.8761H93.3244ZM87.2004 21V8.75213H95.9489V21H93.3244V17.5006H89.825V21H87.2004ZM96.7964 21V18.3755H102.92V15.7509H96.7964V8.75213H105.545V11.3767H99.421V13.1264H105.545V21H96.7964ZM106.392 21V8.75213H109.017V14.8761H112.516V8.75213H115.141V21H112.516V17.5006H109.017V21H106.392Z" fill="#1E2020"/>
<defs>
<clipPath id="clip0_145_31">
<rect width="121" height="32" fill="white"/>
</clipPath>
</defs>
</svg>
