<svg width="429" height="122" viewBox="0 0 429 122" fill="none" xmlns="http://www.w3.org/2000/svg">
<g clip-path="url(#clip0_346_3)">
<path d="M62.7225 20.5263H9.52406C4.22307 20.5263 -0.0742188 24.8236 -0.0742188 30.1245V86.7064C-0.0742188 92.0074 4.22307 96.3047 9.52406 96.3047H62.7225C68.0235 96.3047 72.3208 92.0074 72.3208 86.7064V30.1245C72.3208 24.8236 68.0235 20.5263 62.7225 20.5263Z" fill="#1E2020"/>
<path d="M59.0269 23.5257H13.2272C7.9262 23.5257 3.62891 27.823 3.62891 33.124V83.3229C3.62891 88.6239 7.9262 92.9212 13.2272 92.9212H59.0269C64.3279 92.9212 68.6252 88.6239 68.6252 83.3229V33.124C68.6252 27.823 64.3279 23.5257 59.0269 23.5257Z" fill="#CE422B"/>
<path d="M52.9401 58.2315C52.9401 62.4147 51.4124 66.2381 48.8848 69.1735C47.989 70.2213 46.9732 71.1492 45.8534 71.933C43.1099 73.9007 39.7505 75.0445 36.1191 75.0445C32.4878 75.0445 29.1284 73.8927 26.3849 71.933C25.2651 71.1412 24.2493 70.2133 23.3614 69.1735C20.8339 66.2381 19.3062 62.4147 19.3062 58.2315C19.3062 54.3522 20.6179 50.7768 22.8255 47.9373C23.6654 46.8575 24.6252 45.8817 25.697 45.0419C28.5605 42.7703 32.1758 41.4185 36.1191 41.4185C40.0624 41.4185 43.4138 42.6743 46.2293 44.7939C47.3171 45.6178 48.3089 46.5696 49.1728 47.6254C51.5244 50.5129 52.9401 54.2082 52.9401 58.2315Z" stroke="#1E2020" stroke-width="2.39957" stroke-miterlimit="10"/>
<path d="M25.6971 45.0418C24.6253 45.8817 23.6655 46.8575 22.8257 47.9373L16.8027 42.8422L19.4343 39.7388L25.6971 45.0418Z" stroke="#1E2020" stroke-width="2.39957" stroke-miterlimit="10"/>
<path d="M54.8279 42.8422L49.173 47.6254C48.3091 46.5696 47.3173 45.6177 46.2295 44.7939L52.2044 39.7388L54.8279 42.8422Z" stroke="#1E2020" stroke-width="2.39957" stroke-miterlimit="10"/>
<path d="M55.1318 74.4606L52.5083 77.564L45.8535 71.933C46.9733 71.1492 47.9891 70.2213 48.885 69.1735L55.1318 74.4606Z" stroke="#1E2020" stroke-width="2.39957" stroke-miterlimit="10"/>
<path d="M26.3853 71.933L19.7385 77.564L17.1069 74.4606L23.3618 69.1735C24.2496 70.2133 25.2655 71.1412 26.3853 71.933Z" stroke="#1E2020" stroke-width="2.39957" stroke-miterlimit="10"/>
<path d="M48.2132 30.3165H24.7214C21.834 30.3165 19.1784 31.8762 17.7627 34.3958L5.80483 55.7599C4.45308 58.1755 4.45308 61.127 5.80483 63.5505L17.7627 84.9147C19.1704 87.4342 21.834 88.994 24.7214 88.994H48.2132C51.1007 88.994 53.7562 87.4342 55.172 84.9147L67.1298 63.5505C68.4816 61.135 68.4816 58.1835 67.1298 55.7599L55.172 34.3958C53.7642 31.8762 51.1007 30.3165 48.2132 30.3165Z" stroke="#1E2020" stroke-width="2.39957" stroke-miterlimit="10"/>
<path d="M36.1272 69.7654C42.4972 69.7654 47.6611 64.6015 47.6611 58.2315C47.6611 51.8615 42.4972 46.6975 36.1272 46.6975C29.7572 46.6975 24.5933 51.8615 24.5933 58.2315C24.5933 64.6015 29.7572 69.7654 36.1272 69.7654Z" fill="#1E2020"/>
</g>
<path d="M111.643 57.3571V43.8468H98.1327V57.3571H111.643ZM88 81V33.7141H121.776V67.4897H111.643V70.8673H121.776V81H101.51V67.4897H98.1327V81H88ZM125.048 81V33.7141H135.18V70.8673H148.691V33.7141H158.823V81H125.048ZM162.095 81V70.8673H185.738V60.7346H162.095V33.7141H195.871V43.8468H172.228V50.6019H195.871V81H162.095ZM209.276 81V43.8468H199.143V33.7141H229.541V43.8468H219.408V81H209.276Z" fill="#F6EAE0"/>
<path d="M247 82V71.8673H270.643V61.7346H247V34.7141H280.776V44.8468H257.133V51.6019H280.776V82H247ZM294.18 82V44.8468H284.048V34.7141H314.446V44.8468H304.313V82H294.18ZM341.361 58.3571V44.8468H327.85V58.3571H341.361ZM317.718 82V34.7141H351.493V82H341.361V68.4897H327.85V82H317.718ZM354.765 82V71.8673H378.408V61.7346H354.765V34.7141H388.541V44.8468H364.898V51.6019H388.541V82H354.765ZM391.813 82V34.7141H401.946V58.3571H415.456V34.7141H425.589V82H415.456V68.4897H401.946V82H391.813Z" fill="#F6EAE0"/>
<defs>
<clipPath id="clip0_346_3">
<rect width="272" height="122" fill="white"/>
</clipPath>
</defs>
</svg>
