<svg width="44" height="46" viewBox="0 0 44 46" fill="none" xmlns="http://www.w3.org/2000/svg">
<g clip-path="url(#clip0_32_920)">
<path d="M35.5875 2.46094H5.85723C2.89474 2.46094 0.493164 4.86251 0.493164 7.825V39.4462C0.493164 42.4087 2.89474 44.8102 5.85723 44.8102H35.5875C38.55 44.8102 40.9516 42.4087 40.9516 39.4462V7.825C40.9516 4.86251 38.55 2.46094 35.5875 2.46094Z" fill="#1E2020"/>
<path d="M33.5223 4.13721H7.92681C4.96432 4.13721 2.56274 6.53878 2.56274 9.50127V37.5553C2.56274 40.5178 4.96432 42.9194 7.92681 42.9194H33.5223C36.4848 42.9194 38.8864 40.5178 38.8864 37.5553V9.50127C38.8864 6.53878 36.4848 4.13721 33.5223 4.13721Z" fill="#CE422B"/>
<path d="M30.1206 23.5328C30.1206 25.8706 29.2668 28.0073 27.8542 29.6478C27.3536 30.2334 26.7859 30.7519 26.1601 31.19C24.6269 32.2896 22.7494 32.9288 20.72 32.9288C18.6906 32.9288 16.8132 32.2851 15.28 31.19C14.6542 30.7474 14.0865 30.2289 13.5903 29.6478C12.1778 28.0073 11.324 25.8706 11.324 23.5328C11.324 21.3648 12.0571 19.3667 13.2908 17.7798C13.7602 17.1764 14.2966 16.631 14.8955 16.1617C16.4958 14.8922 18.5163 14.1367 20.72 14.1367C22.9238 14.1367 24.7967 14.8385 26.3702 16.0231C26.9781 16.4835 27.5324 17.0154 28.0152 17.6055C29.3294 19.2192 30.1206 21.2843 30.1206 23.5328Z" stroke="#1E2020" stroke-width="1.34102" stroke-miterlimit="10"/>
<path d="M14.8955 16.1614C14.2965 16.6308 13.7601 17.1761 13.2908 17.7796L9.9248 14.9321L11.3955 13.1978L14.8955 16.1614Z" stroke="#1E2020" stroke-width="1.34102" stroke-miterlimit="10"/>
<path d="M31.1754 14.9321L28.0151 17.6052C27.5323 17.0152 26.978 16.4832 26.3701 16.0228L29.7092 13.1978L31.1754 14.9321Z" stroke="#1E2020" stroke-width="1.34102" stroke-miterlimit="10"/>
<path d="M31.3452 32.6022L29.879 34.3365L26.1599 31.1896C26.7857 30.7516 27.3534 30.233 27.8541 29.6475L31.3452 32.6022Z" stroke="#1E2020" stroke-width="1.34102" stroke-miterlimit="10"/>
<path d="M15.2802 31.1896L11.5656 34.3365L10.095 32.6022L13.5906 29.6475C14.0867 30.2286 14.6544 30.7471 15.2802 31.1896Z" stroke="#1E2020" stroke-width="1.34102" stroke-miterlimit="10"/>
<path d="M27.479 7.93213H14.3504C12.7367 7.93213 11.2527 8.80379 10.4615 10.2119L3.77874 22.1514C3.0233 23.5013 3.0233 25.1508 3.77874 26.5052L10.4615 38.4447C11.2482 39.8528 12.7367 40.7244 14.3504 40.7244H27.479C29.0927 40.7244 30.5767 39.8528 31.3679 38.4447L38.0506 26.5052C38.8061 25.1552 38.8061 23.5058 38.0506 22.1514L31.3679 10.2119C30.5812 8.80379 29.0927 7.93213 27.479 7.93213Z" stroke="#1E2020" stroke-width="1.34102" stroke-miterlimit="10"/>
<path d="M20.7244 29.9785C24.2843 29.9785 27.1702 27.0927 27.1702 23.5327C27.1702 19.9728 24.2843 17.0869 20.7244 17.0869C17.1645 17.0869 14.2786 19.9728 14.2786 23.5327C14.2786 27.0927 17.1645 29.9785 20.7244 29.9785Z" fill="#1E2020"/>
</g>
<defs>
<clipPath id="clip0_32_920">
<rect width="42.3008" height="44.1602" fill="white" transform="translate(0.707031 0.855469)"/>
</clipPath>
</defs>
</svg>
